<?xml version="1.0" encoding="UTF-8" standalone="no"?>
<!-- Uploaded to: SVG Repo, www.svgrepo.com, Generator: SVG Repo Mixer Tools -->

<svg
   fill="#000000"
   height="360"
   width="800"
   version="1.1"
   id="Capa_1"
   viewBox="0 0 456.333 205.34976"
   xml:space="preserve"
   sodipodi:docname="sofa.svg"
   inkscape:version="1.3.2 (091e20e, 2023-11-25, custom)"
   xmlns:inkscape="http://www.inkscape.org/namespaces/inkscape"
   xmlns:sodipodi="http://sodipodi.sourceforge.net/DTD/sodipodi-0.dtd"
   xmlns="http://www.w3.org/2000/svg"
   xmlns:svg="http://www.w3.org/2000/svg"><defs
   id="defs1" /><sodipodi:namedview
   id="namedview1"
   pagecolor="#ffffff"
   bordercolor="#000000"
   borderopacity="0.25"
   inkscape:showpageshadow="2"
   inkscape:pageopacity="0.0"
   inkscape:pagecheckerboard="0"
   inkscape:deskcolor="#d1d1d1"
   showgrid="false"
   inkscape:zoom="1.02625"
   inkscape:cx="400.48721"
   inkscape:cy="362.97199"
   inkscape:window-width="1920"
   inkscape:window-height="1017"
   inkscape:window-x="-8"
   inkscape:window-y="-8"
   inkscape:window-maximized="1"
   inkscape:current-layer="Capa_1" />
<path
   d="m 440.569,22.299 c -1.542,-0.129 -3.073,-0.131 -4.587,-0.034 v -0.004 l -37.159,0.029 c -8.206,0 -14.913,1.769 -20.237,5.33 -0.266,-4.369 -0.818,-9.983 -1.963,-15.135 C 375.014,5.251 368.435,0 360.98,0 H 228.167 95.353 C 87.898,0 81.321,5.251 79.711,12.485 78.566,17.637 78.013,23.251 77.747,27.62 72.423,24.058 65.716,22.29 57.512,22.29 L 20.35,22.261 v 0.003 C 18.836,22.167 17.305,22.17 15.763,22.299 6.924,23.036 0,30.562 0,39.432 V 147.054 C 0,162.464 12.537,175 27.946,175 H 36 v 19.869 c 0,3.656 2.183,6.923 5.561,8.322 1.121,0.464 2.294,0.69 3.457,0.69 2.339,0 4.633,-0.916 6.36,-2.643 l 26.238,-26.239 h 301.101 l 26.239,26.239 c 1.728,1.727 4.021,2.643 6.36,2.643 1.161,0 2.335,-0.226 3.456,-0.69 3.378,-1.399 5.561,-4.666 5.561,-8.323 v -19.869 h 8.054 c 15.409,0 27.946,-12.537 27.946,-27.946 V 39.432 c 0,-8.87 -6.925,-16.396 -15.764,-17.133 z m -41.743,6.991 19.333,-0.015 c -3.627,2.957 -6.622,6.737 -8.655,11.159 l -11.732,25.523 c -8.061,17.535 -7.663,37.325 0.172,54.129 -12.513,-7.839 -25.896,-14.112 -39.865,-18.706 -1.672,-11.078 -0.094,-22.271 4.604,-32.497 L 374.414,43.362 C 378.882,33.629 386.41,29.29 398.826,29.29 Z M 95.353,7 H 228.167 360.98 c 4.202,0 7.906,2.946 8.809,7.005 1.71,7.69 1.989,16.858 2.033,20.048 -1.425,1.897 -2.683,4.02 -3.769,6.386 L 356.322,65.96 c -4.807,10.462 -6.696,21.824 -5.572,33.168 -10.399,-2.943 -21.08,-4.983 -31.936,-6.048 -60.149,-5.593 -121.145,-5.592 -181.313,0.001 -10.848,1.064 -21.523,3.103 -31.917,6.045 1.123,-11.343 -0.766,-22.705 -5.574,-33.168 L 88.28,40.44 C 87.194,38.074 85.935,35.95 84.51,34.053 84.553,30.867 84.831,21.712 86.544,14.005 87.447,9.945 91.151,7 95.353,7 Z M 57.51,29.29 c 12.413,0 19.941,4.339 24.41,14.072 l 11.729,25.52 c 4.7,10.227 6.278,21.42 4.606,32.496 -13.968,4.594 -27.352,10.868 -39.866,18.708 7.835,-16.804 8.233,-36.594 0.172,-54.129 L 46.829,40.434 C 44.797,36.012 41.801,32.232 38.174,29.275 Z M 46.429,196.289 c -0.855,0.856 -1.817,0.589 -2.189,0.436 -0.372,-0.155 -1.239,-0.645 -1.239,-1.855 v -19.869 h 24.717 z m 366.904,-1.42 c 0,1.211 -0.867,1.701 -1.239,1.855 -0.372,0.154 -1.331,0.421 -2.188,-0.436 l -21.289,-21.289 h 24.717 v 19.87 z m 36,-47.816 c 0,11.568 -9.378,20.946 -20.946,20.946 H 27.946 C 16.378,168 7,158.622 7,147.053 V 39.432 c 0,-5.258 4.105,-9.72 9.346,-10.157 10.155,-0.844 19.861,4.812 24.124,14.083 l 11.732,25.523 c 10.214,22.22 5.209,48.512 -12.456,65.425 l 4.842,5.056 v 0 c 3.772,-3.618 7.826,-6.942 12.151,-9.876 24.23,-16.436 52.2,-26.57 81.428,-29.436 59.72,-5.552 120.28,-5.553 179.982,-10e-4 29.243,2.867 57.215,13.001 81.445,29.437 4.307,2.922 8.345,6.23 12.103,9.83 l 0.048,0.046 4.842,-5.056 C 398.922,117.393 393.916,91.101 404.13,68.881 l 11.732,-25.523 c 4.262,-9.271 13.973,-14.92 24.124,-14.083 5.24,0.437 9.346,4.898 9.346,10.157 v 107.621 z"
   id="path1" />
</svg>
